<?xml version="1.0" standalone="no"?><!DOCTYPE svg PUBLIC "-//W3C//DTD SVG 1.1//EN" "http://www.w3.org/Graphics/SVG/1.1/DTD/svg11.dtd"><svg t="1775718407512" class="icon" viewBox="0 0 1024 1024" version="1.1" xmlns="http://www.w3.org/2000/svg" p-id="19514" xmlns:xlink="http://www.w3.org/1999/xlink" width="200" height="200"><path d="M876.16 372.864c37.12-36.672 56.128-78.72 56.128-125.888 0-44.736-14.848-86.848-44.096-126.72C859.2 80.448 819.072 50.752 768 30.72 716.928 10.88 630.784 0.896 509.44 0.896H0v27.008c48 0 81.152 4.16 98.816 12.48 17.92 8.32 30.336 19.2 37.76 32.704 7.04 13.312 10.688 46.72 10.688 99.904v634.048c0 53.248-3.712 86.4-10.688 99.968-7.168 13.312-19.392 24.192-36.864 32.704-17.664 8.32-50.816 12.416-99.52 12.416v27.072h539.776c150.592 0 265.6-28.992 344.768-86.848 64.384-48.448 96.448-109.312 96.448-182.848 0-69.76-29.056-126.72-87.488-170.368-41.024-30.976-112-57.408-213.376-78.72 93.12-21.632 158.4-50.88 195.84-87.552zM394.56 56.32c76.544-0.64 132.224 6.272 166.4 20.672 34.56 14.208 61.12 35.392 79.488 63.104 18.56 27.904 27.904 63.232 27.904 105.984 0 43.904-9.6 79.424-28.352 107.136-18.752 27.968-45.824 49.536-80.704 64.64-35.2 15.232-90.112 22.848-164.736 22.848V56.32zM575.36 517.952a185.28 185.28 0 0 1 94.272 76.16c23.04 35.968 34.688 77.248 34.688 123.072 0 40.128-9.6 76.16-28.416 108.416-18.752 32.32-45.824 56.96-80.704 73.984a262.144 262.144 0 0 1-115.84 25.536c-28.16 0-49.28-6.592-63.488-19.84-14.4-13.12-21.376-32.768-21.376-58.24v-350.08c80.512-0.64 140.736 6.4 180.864 20.992z" fill="#F97316" p-id="19515"></path></svg>