<?xml version="1.0" standalone="no"?><!DOCTYPE svg PUBLIC "-//W3C//DTD SVG 1.1//EN" "http://www.w3.org/Graphics/SVG/1.1/DTD/svg11.dtd"><svg t="1775718281178" class="icon" viewBox="0 0 1024 1024" version="1.1" xmlns="http://www.w3.org/2000/svg" p-id="7617" xmlns:xlink="http://www.w3.org/1999/xlink" width="200" height="200"><path d="M384.00128 584.32a118.4 118.4 0 0 0-39.68-86.4A72.32 72.32 0 0 0 320.00128 484.48a31.36 31.36 0 0 0 12.8-11.52 49.28 49.28 0 0 0 8.96-16 97.28 97.28 0 0 0 5.76-17.92 104.32 104.32 0 0 0-6.4-64A87.04 87.04 0 0 0 320.00128 346.24 105.6 105.6 0 0 0 246.40128 320H128.00128v384h134.4a128 128 0 0 0 46.72-7.68 116.48 116.48 0 0 0 39.04-23.68 108.8 108.8 0 0 0 26.24-37.76A136.32 136.32 0 0 0 384.00128 584.32zM192.00128 384h38.4a92.16 92.16 0 0 1 37.76 7.04 31.36 31.36 0 0 1 0 55.68 80 80 0 0 1-37.12 6.4H192.00128z m121.6 219.52a68.48 68.48 0 0 1-16 19.84 78.08 78.08 0 0 1-23.04 11.52 89.6 89.6 0 0 1-26.24 3.84L192.00128 640V512h55.68a80 80 0 0 1 49.28 16A53.12 53.12 0 0 1 320.00128 576a64 64 0 0 1-6.4 27.52zM525.44128 383.36v320h-64v-320h-70.4v-64h203.52v64H525.44128zM826.24128 703.36L704.00128 452.48v250.88h-64v-384h69.76L832.00128 569.6V319.36h64v384h-69.76z" fill="#F97316" p-id="7618"></path><path d="M849.28128 128A110.72 110.72 0 0 1 960.00128 238.08v546.56A111.36 111.36 0 0 1 849.28128 896H174.72128A111.36 111.36 0 0 1 64.00128 784.64V238.08A110.72 110.72 0 0 1 174.72128 128h674.56m0-64H174.72128A174.72 174.72 0 0 0 0.00128 238.08v546.56A174.72 174.72 0 0 0 174.72128 960h674.56A174.72 174.72 0 0 0 1024.00128 784.64V238.08A174.72 174.72 0 0 0 849.28128 64z" fill="#F97316" p-id="7619"></path></svg>